# xmcd
# 
# Track frame offsets:
#     150
#     33165
#     54551
#     78277
#     94569
#     114013
#     146328
#     165190
#     188891
#     211286
#     228805
#     244396
#     259890
#     282922
#     314861
#     327701
# 
# Disc length: 4640
# 
# Revision: 0
# Processed by: cddbd v1.5.2PL0 Copyright (c) Steve Scherf et al.
# Submitted via: fre:ac v1.0.31
# 
DISCID=d8121e10
DTITLE=Joe Bonamassa - Greatest Hits CD2
DYEAR=2012
DGENRE=Blues
TTITLE0=Blues Deluxe
TTITLE1=A New Day Yesterday
TTITLE2=Jockey Full Of Bourbon
TTITLE3=Miss You, Hate You
TTITLE4=Black Night
TTITLE5=Last Kiss
TTITLE6=Baby You Gotta Change Your Mind
TTITLE7=Quarryman's Lamen
TTITLE8=Story Of A Quarryman
TTITLE9=When The Fire Hits The Sea
TTITLE10=Walk In My Shadows
TTITLE11=Ball Peen Hammer
TTITLE12=Bridge To Better Days
TTITLE13=So Many Roads
TTITLE14=Woke Up Dreaming
TTITLE15=Dust Bowl
EXTD=
EXTT0=
EXTT1=
EXTT2=
EXTT3=
EXTT4=
EXTT5=
EXTT6=
EXTT7=
EXTT8=
EXTT9=
EXTT10=
EXTT11=
EXTT12=
EXTT13=
EXTT14=
EXTT15=
PLAYORDER=
